<mxfile host="app.diagrams.net" modified="2023-10-29T18:19:11.041Z" agent="Mozilla/5.0 (Windows NT 10.0; Win64; x64) AppleWebKit/537.36 (KHTML, like Gecko) Chrome/118.0.0.0 Safari/537.36 Edg/118.0.2088.76" etag="L1dD6lQcMir_KB7x0lJk" version="22.0.8" type="github">
  <diagram id="C5RBs43oDa-KdzZeNtuy" name="Page-1">
    <mxGraphModel dx="746" dy="455" grid="1" gridSize="10" guides="1" tooltips="1" connect="1" arrows="1" fold="1" page="1" pageScale="1" pageWidth="827" pageHeight="1169" background="#FFFFFF" math="0" shadow="1">
      <root>
        <mxCell id="WIyWlLk6GJQsqaUBKTNV-0" />
        <mxCell id="WIyWlLk6GJQsqaUBKTNV-1" parent="WIyWlLk6GJQsqaUBKTNV-0" />
        <mxCell id="yDMauh3KUWVeg09iyaUy-96" style="edgeStyle=orthogonalEdgeStyle;rounded=0;orthogonalLoop=1;jettySize=auto;html=1;exitX=1;exitY=0.5;exitDx=0;exitDy=0;entryX=0;entryY=0.5;entryDx=0;entryDy=0;strokeColor=#028090;fontColor=#E4FDE1;fillColor=#F45B69;" parent="WIyWlLk6GJQsqaUBKTNV-1" source="WIyWlLk6GJQsqaUBKTNV-7" target="yDMauh3KUWVeg09iyaUy-95" edge="1">
          <mxGeometry relative="1" as="geometry" />
        </mxCell>
        <mxCell id="WIyWlLk6GJQsqaUBKTNV-7" value="&lt;font color=&quot;#ffffff&quot;&gt;pr==120*p&lt;/font&gt;" style="rounded=0;whiteSpace=wrap;html=1;fontSize=12;glass=0;strokeWidth=1;shadow=0;labelBackgroundColor=none;fillColor=#994C00;strokeColor=#028090;fontColor=#000000;" parent="WIyWlLk6GJQsqaUBKTNV-1" vertex="1">
          <mxGeometry x="450" y="580" width="120" height="40" as="geometry" />
        </mxCell>
        <mxCell id="yDMauh3KUWVeg09iyaUy-5" value="" style="edgeStyle=orthogonalEdgeStyle;rounded=0;orthogonalLoop=1;jettySize=auto;html=1;labelBackgroundColor=none;strokeColor=#028090;fontColor=default;" parent="WIyWlLk6GJQsqaUBKTNV-1" source="yDMauh3KUWVeg09iyaUy-0" target="yDMauh3KUWVeg09iyaUy-2" edge="1">
          <mxGeometry relative="1" as="geometry" />
        </mxCell>
        <mxCell id="yDMauh3KUWVeg09iyaUy-0" value="pass." style="shape=card;whiteSpace=wrap;html=1;labelBackgroundColor=none;fillColor=#76608a;strokeColor=#432D57;fontColor=#ffffff;rounded=0;" parent="WIyWlLk6GJQsqaUBKTNV-1" vertex="1">
          <mxGeometry x="20" y="90" width="57.5" height="60" as="geometry" />
        </mxCell>
        <mxCell id="yDMauh3KUWVeg09iyaUy-2" value="class" style="shape=card;whiteSpace=wrap;html=1;labelBackgroundColor=none;fillColor=#76608a;strokeColor=#432D57;fontColor=#ffffff;" parent="WIyWlLk6GJQsqaUBKTNV-1" vertex="1">
          <mxGeometry x="20" y="210" width="57.5" height="60" as="geometry" />
        </mxCell>
        <mxCell id="yDMauh3KUWVeg09iyaUy-11" style="edgeStyle=orthogonalEdgeStyle;rounded=0;orthogonalLoop=1;jettySize=auto;html=1;exitX=0.5;exitY=1;exitDx=0;exitDy=0;exitPerimeter=0;entryX=0.5;entryY=0;entryDx=0;entryDy=0;strokeColor=#028090;fontColor=#E4FDE1;fillColor=#F45B69;" parent="WIyWlLk6GJQsqaUBKTNV-1" source="yDMauh3KUWVeg09iyaUy-6" target="yDMauh3KUWVeg09iyaUy-8" edge="1">
          <mxGeometry relative="1" as="geometry" />
        </mxCell>
        <mxCell id="yDMauh3KUWVeg09iyaUy-6" value="time" style="shape=card;whiteSpace=wrap;html=1;strokeColor=#432D57;fontColor=#ffffff;fillColor=#76608a;" parent="WIyWlLk6GJQsqaUBKTNV-1" vertex="1">
          <mxGeometry x="18.75" y="330" width="60" height="60" as="geometry" />
        </mxCell>
        <mxCell id="yDMauh3KUWVeg09iyaUy-65" style="edgeStyle=orthogonalEdgeStyle;rounded=0;orthogonalLoop=1;jettySize=auto;html=1;exitX=1;exitY=0;exitDx=0;exitDy=0;entryX=0;entryY=0.5;entryDx=0;entryDy=0;strokeColor=#028090;fontColor=#E4FDE1;fillColor=#F45B69;" parent="WIyWlLk6GJQsqaUBKTNV-1" source="yDMauh3KUWVeg09iyaUy-8" target="yDMauh3KUWVeg09iyaUy-14" edge="1">
          <mxGeometry relative="1" as="geometry" />
        </mxCell>
        <mxCell id="yDMauh3KUWVeg09iyaUy-66" style="edgeStyle=orthogonalEdgeStyle;rounded=0;orthogonalLoop=1;jettySize=auto;html=1;exitX=0.5;exitY=1;exitDx=0;exitDy=0;strokeColor=#028090;fontColor=#E4FDE1;fillColor=#F45B69;entryX=0;entryY=0.5;entryDx=0;entryDy=0;" parent="WIyWlLk6GJQsqaUBKTNV-1" source="yDMauh3KUWVeg09iyaUy-8" target="yDMauh3KUWVeg09iyaUy-15" edge="1">
          <mxGeometry relative="1" as="geometry">
            <mxPoint x="49" y="600" as="targetPoint" />
          </mxGeometry>
        </mxCell>
        <mxCell id="yDMauh3KUWVeg09iyaUy-8" value="c==1" style="rhombus;whiteSpace=wrap;html=1;strokeColor=#028090;fontColor=#E4FDE1;fillColor=#F45B69;" parent="WIyWlLk6GJQsqaUBKTNV-1" vertex="1">
          <mxGeometry x="8.75" y="445" width="80" height="80" as="geometry" />
        </mxCell>
        <mxCell id="yDMauh3KUWVeg09iyaUy-9" style="edgeStyle=orthogonalEdgeStyle;rounded=0;orthogonalLoop=1;jettySize=auto;html=1;exitX=0.5;exitY=1;exitDx=0;exitDy=0;exitPerimeter=0;entryX=0;entryY=0;entryDx=30;entryDy=0;entryPerimeter=0;strokeColor=#028090;fontColor=#E4FDE1;fillColor=#F45B69;" parent="WIyWlLk6GJQsqaUBKTNV-1" source="yDMauh3KUWVeg09iyaUy-2" target="yDMauh3KUWVeg09iyaUy-6" edge="1">
          <mxGeometry relative="1" as="geometry" />
        </mxCell>
        <mxCell id="yDMauh3KUWVeg09iyaUy-69" style="edgeStyle=orthogonalEdgeStyle;rounded=0;orthogonalLoop=1;jettySize=auto;html=1;exitX=0.5;exitY=0;exitDx=0;exitDy=0;entryX=0;entryY=0.5;entryDx=0;entryDy=0;strokeColor=#028090;fontColor=#E4FDE1;fillColor=#F45B69;" parent="WIyWlLk6GJQsqaUBKTNV-1" source="yDMauh3KUWVeg09iyaUy-14" target="yDMauh3KUWVeg09iyaUy-20" edge="1">
          <mxGeometry relative="1" as="geometry" />
        </mxCell>
        <mxCell id="yDMauh3KUWVeg09iyaUy-87" style="edgeStyle=orthogonalEdgeStyle;rounded=0;orthogonalLoop=1;jettySize=auto;html=1;exitX=0.5;exitY=1;exitDx=0;exitDy=0;entryX=0;entryY=0.5;entryDx=0;entryDy=0;strokeColor=#028090;fontColor=#E4FDE1;fillColor=#F45B69;" parent="WIyWlLk6GJQsqaUBKTNV-1" source="yDMauh3KUWVeg09iyaUy-14" target="yDMauh3KUWVeg09iyaUy-33" edge="1">
          <mxGeometry relative="1" as="geometry" />
        </mxCell>
        <mxCell id="yDMauh3KUWVeg09iyaUy-14" value="pr==100*p" style="rhombus;whiteSpace=wrap;html=1;strokeColor=#028090;fontColor=#E4FDE1;fillColor=#F45B69;" parent="WIyWlLk6GJQsqaUBKTNV-1" vertex="1">
          <mxGeometry x="180" y="425" width="80" height="80" as="geometry" />
        </mxCell>
        <mxCell id="yDMauh3KUWVeg09iyaUy-81" style="edgeStyle=orthogonalEdgeStyle;rounded=0;orthogonalLoop=1;jettySize=auto;html=1;exitX=0.5;exitY=0;exitDx=0;exitDy=0;entryX=0;entryY=0.5;entryDx=0;entryDy=0;strokeColor=#028090;fontColor=#E4FDE1;fillColor=#F45B69;" parent="WIyWlLk6GJQsqaUBKTNV-1" source="yDMauh3KUWVeg09iyaUy-18" target="WIyWlLk6GJQsqaUBKTNV-7" edge="1">
          <mxGeometry relative="1" as="geometry">
            <Array as="points">
              <mxPoint x="340" y="600" />
              <mxPoint x="440" y="600" />
            </Array>
          </mxGeometry>
        </mxCell>
        <mxCell id="yDMauh3KUWVeg09iyaUy-88" style="edgeStyle=orthogonalEdgeStyle;rounded=0;orthogonalLoop=1;jettySize=auto;html=1;exitX=0.5;exitY=1;exitDx=0;exitDy=0;entryX=0;entryY=0.5;entryDx=0;entryDy=0;strokeColor=#028090;fontColor=#E4FDE1;fillColor=#F45B69;" parent="WIyWlLk6GJQsqaUBKTNV-1" source="yDMauh3KUWVeg09iyaUy-18" target="yDMauh3KUWVeg09iyaUy-25" edge="1">
          <mxGeometry relative="1" as="geometry" />
        </mxCell>
        <mxCell id="yDMauh3KUWVeg09iyaUy-18" value="pr==140*p" style="rhombus;whiteSpace=wrap;html=1;strokeColor=#028090;fontColor=#E4FDE1;fillColor=#F45B69;" parent="WIyWlLk6GJQsqaUBKTNV-1" vertex="1">
          <mxGeometry x="300" y="680" width="80" height="80" as="geometry" />
        </mxCell>
        <mxCell id="yDMauh3KUWVeg09iyaUy-70" style="edgeStyle=orthogonalEdgeStyle;rounded=0;orthogonalLoop=1;jettySize=auto;html=1;exitX=0.5;exitY=0;exitDx=0;exitDy=0;entryX=0;entryY=0.5;entryDx=0;entryDy=0;strokeColor=#028090;fontColor=#E4FDE1;fillColor=#F45B69;" parent="WIyWlLk6GJQsqaUBKTNV-1" source="yDMauh3KUWVeg09iyaUy-20" target="yDMauh3KUWVeg09iyaUy-39" edge="1">
          <mxGeometry relative="1" as="geometry" />
        </mxCell>
        <mxCell id="yDMauh3KUWVeg09iyaUy-90" style="edgeStyle=orthogonalEdgeStyle;rounded=0;orthogonalLoop=1;jettySize=auto;html=1;exitX=0.5;exitY=1;exitDx=0;exitDy=0;entryX=0;entryY=0.5;entryDx=0;entryDy=0;strokeColor=#028090;fontColor=#E4FDE1;fillColor=#F45B69;" parent="WIyWlLk6GJQsqaUBKTNV-1" source="yDMauh3KUWVeg09iyaUy-20" target="yDMauh3KUWVeg09iyaUy-89" edge="1">
          <mxGeometry relative="1" as="geometry" />
        </mxCell>
        <mxCell id="yDMauh3KUWVeg09iyaUy-20" value="pr==90*p" style="rhombus;whiteSpace=wrap;html=1;strokeColor=#028090;fontColor=#E4FDE1;fillColor=#F45B69;" parent="WIyWlLk6GJQsqaUBKTNV-1" vertex="1">
          <mxGeometry x="300" y="340" width="80" height="80" as="geometry" />
        </mxCell>
        <mxCell id="yDMauh3KUWVeg09iyaUy-97" style="edgeStyle=orthogonalEdgeStyle;rounded=0;orthogonalLoop=1;jettySize=auto;html=1;exitX=1;exitY=1;exitDx=0;exitDy=0;strokeColor=#028090;fontColor=#E4FDE1;fillColor=#F45B69;" parent="WIyWlLk6GJQsqaUBKTNV-1" source="yDMauh3KUWVeg09iyaUy-23" edge="1">
          <mxGeometry relative="1" as="geometry">
            <mxPoint x="739.6470588235295" y="300.2941176470589" as="targetPoint" />
          </mxGeometry>
        </mxCell>
        <mxCell id="yDMauh3KUWVeg09iyaUy-23" value="t==night" style="rounded=0;whiteSpace=wrap;html=1;strokeColor=#028090;fontColor=#E4FDE1;fillColor=#994C00;" parent="WIyWlLk6GJQsqaUBKTNV-1" vertex="1">
          <mxGeometry x="620" y="260" width="120" height="40" as="geometry" />
        </mxCell>
        <mxCell id="yDMauh3KUWVeg09iyaUy-92" style="edgeStyle=orthogonalEdgeStyle;rounded=0;orthogonalLoop=1;jettySize=auto;html=1;exitX=1;exitY=0.5;exitDx=0;exitDy=0;strokeColor=#028090;fontColor=#E4FDE1;fillColor=#F45B69;" parent="WIyWlLk6GJQsqaUBKTNV-1" edge="1">
          <mxGeometry relative="1" as="geometry">
            <mxPoint x="800" y="535" as="targetPoint" />
            <mxPoint x="410" y="515" as="sourcePoint" />
            <Array as="points">
              <mxPoint x="800" y="525" />
            </Array>
          </mxGeometry>
        </mxCell>
        <mxCell id="yDMauh3KUWVeg09iyaUy-33" value="t==morning" style="rounded=0;whiteSpace=wrap;html=1;strokeColor=#028090;fontColor=#E4FDE1;fillColor=#994C00;" parent="WIyWlLk6GJQsqaUBKTNV-1" vertex="1">
          <mxGeometry x="290" y="505" width="120" height="40" as="geometry" />
        </mxCell>
        <mxCell id="yDMauh3KUWVeg09iyaUy-91" style="edgeStyle=orthogonalEdgeStyle;rounded=0;orthogonalLoop=1;jettySize=auto;html=1;exitX=1;exitY=0.5;exitDx=0;exitDy=0;entryX=0;entryY=0.5;entryDx=0;entryDy=0;strokeColor=#028090;fontColor=#E4FDE1;fillColor=#F45B69;" parent="WIyWlLk6GJQsqaUBKTNV-1" source="yDMauh3KUWVeg09iyaUy-39" target="yDMauh3KUWVeg09iyaUy-23" edge="1">
          <mxGeometry relative="1" as="geometry" />
        </mxCell>
        <mxCell id="yDMauh3KUWVeg09iyaUy-39" value="&lt;font color=&quot;#ffffff&quot;&gt;pr==70*p&lt;/font&gt;" style="rounded=0;whiteSpace=wrap;html=1;fontSize=12;glass=0;strokeWidth=1;shadow=0;labelBackgroundColor=none;fillColor=#994C00;strokeColor=#028090;fontColor=#000000;" parent="WIyWlLk6GJQsqaUBKTNV-1" vertex="1">
          <mxGeometry x="440" y="260" width="120" height="40" as="geometry" />
        </mxCell>
        <mxCell id="yDMauh3KUWVeg09iyaUy-100" style="edgeStyle=orthogonalEdgeStyle;rounded=0;orthogonalLoop=1;jettySize=auto;html=1;exitX=1;exitY=0.5;exitDx=0;exitDy=0;strokeColor=#028090;fontColor=#E4FDE1;fillColor=#F45B69;" parent="WIyWlLk6GJQsqaUBKTNV-1" source="yDMauh3KUWVeg09iyaUy-25" edge="1">
          <mxGeometry relative="1" as="geometry">
            <mxPoint x="800" y="800.2941176470588" as="targetPoint" />
          </mxGeometry>
        </mxCell>
        <mxCell id="yDMauh3KUWVeg09iyaUy-25" value="t==afternoon" style="rounded=0;whiteSpace=wrap;html=1;strokeColor=#028090;fontColor=#E4FDE1;fillColor=#994C00;" parent="WIyWlLk6GJQsqaUBKTNV-1" vertex="1">
          <mxGeometry x="440" y="780" width="120" height="40" as="geometry" />
        </mxCell>
        <mxCell id="yDMauh3KUWVeg09iyaUy-46" style="edgeStyle=orthogonalEdgeStyle;rounded=0;orthogonalLoop=1;jettySize=auto;html=1;exitX=0.5;exitY=1;exitDx=0;exitDy=0;strokeColor=#028090;fontColor=#E4FDE1;fillColor=#F45B69;" parent="WIyWlLk6GJQsqaUBKTNV-1" source="yDMauh3KUWVeg09iyaUy-25" target="yDMauh3KUWVeg09iyaUy-25" edge="1">
          <mxGeometry relative="1" as="geometry" />
        </mxCell>
        <mxCell id="yDMauh3KUWVeg09iyaUy-79" style="edgeStyle=orthogonalEdgeStyle;rounded=0;orthogonalLoop=1;jettySize=auto;html=1;exitX=0.5;exitY=0;exitDx=0;exitDy=0;entryX=0;entryY=0.5;entryDx=0;entryDy=0;strokeColor=#028090;fontColor=#E4FDE1;fillColor=#F45B69;" parent="WIyWlLk6GJQsqaUBKTNV-1" source="yDMauh3KUWVeg09iyaUy-15" target="yDMauh3KUWVeg09iyaUy-18" edge="1">
          <mxGeometry relative="1" as="geometry" />
        </mxCell>
        <mxCell id="yDMauh3KUWVeg09iyaUy-86" style="edgeStyle=orthogonalEdgeStyle;rounded=0;orthogonalLoop=1;jettySize=auto;html=1;exitX=0.5;exitY=1;exitDx=0;exitDy=0;entryX=0;entryY=0.5;entryDx=0;entryDy=0;strokeColor=#028090;fontColor=#E4FDE1;fillColor=#F45B69;" parent="WIyWlLk6GJQsqaUBKTNV-1" source="yDMauh3KUWVeg09iyaUy-15" target="yDMauh3KUWVeg09iyaUy-85" edge="1">
          <mxGeometry relative="1" as="geometry" />
        </mxCell>
        <mxCell id="yDMauh3KUWVeg09iyaUy-15" value="pr==150*p" style="rhombus;whiteSpace=wrap;html=1;strokeColor=#028090;fontColor=#E4FDE1;fillColor=#F45B69;" parent="WIyWlLk6GJQsqaUBKTNV-1" vertex="1">
          <mxGeometry x="180" y="760" width="80" height="80" as="geometry" />
        </mxCell>
        <mxCell id="yDMauh3KUWVeg09iyaUy-82" style="edgeStyle=orthogonalEdgeStyle;rounded=0;orthogonalLoop=1;jettySize=auto;html=1;exitX=0.5;exitY=1;exitDx=0;exitDy=0;strokeColor=#028090;fontColor=#E4FDE1;fillColor=#F45B69;" parent="WIyWlLk6GJQsqaUBKTNV-1" source="yDMauh3KUWVeg09iyaUy-20" target="yDMauh3KUWVeg09iyaUy-20" edge="1">
          <mxGeometry relative="1" as="geometry" />
        </mxCell>
        <mxCell id="yDMauh3KUWVeg09iyaUy-101" style="edgeStyle=orthogonalEdgeStyle;rounded=0;orthogonalLoop=1;jettySize=auto;html=1;exitX=1;exitY=0.5;exitDx=0;exitDy=0;strokeColor=#028090;fontColor=#E4FDE1;fillColor=#F45B69;" parent="WIyWlLk6GJQsqaUBKTNV-1" source="yDMauh3KUWVeg09iyaUy-85" edge="1">
          <mxGeometry relative="1" as="geometry">
            <mxPoint x="800" y="900.2941176470588" as="targetPoint" />
          </mxGeometry>
        </mxCell>
        <mxCell id="yDMauh3KUWVeg09iyaUy-85" value="t == morning" style="rounded=0;whiteSpace=wrap;html=1;strokeColor=#028090;fontColor=#E4FDE1;fillColor=#994C00;" parent="WIyWlLk6GJQsqaUBKTNV-1" vertex="1">
          <mxGeometry x="290" y="880" width="120" height="40" as="geometry" />
        </mxCell>
        <mxCell id="yDMauh3KUWVeg09iyaUy-93" style="edgeStyle=orthogonalEdgeStyle;rounded=0;orthogonalLoop=1;jettySize=auto;html=1;exitX=1;exitY=0.5;exitDx=0;exitDy=0;strokeColor=#028090;fontColor=#E4FDE1;fillColor=#F45B69;" parent="WIyWlLk6GJQsqaUBKTNV-1" source="yDMauh3KUWVeg09iyaUy-89" edge="1">
          <mxGeometry relative="1" as="geometry">
            <mxPoint x="800" y="440" as="targetPoint" />
          </mxGeometry>
        </mxCell>
        <mxCell id="yDMauh3KUWVeg09iyaUy-89" value="t==afternoon" style="rounded=0;whiteSpace=wrap;html=1;strokeColor=#028090;fontColor=#E4FDE1;fillColor=#994C00;" parent="WIyWlLk6GJQsqaUBKTNV-1" vertex="1">
          <mxGeometry x="440" y="420" width="120" height="40" as="geometry" />
        </mxCell>
        <mxCell id="yDMauh3KUWVeg09iyaUy-126" style="edgeStyle=orthogonalEdgeStyle;rounded=0;orthogonalLoop=1;jettySize=auto;html=1;exitX=1;exitY=0.5;exitDx=0;exitDy=0;entryX=0;entryY=0.5;entryDx=0;entryDy=0;strokeColor=#028090;fontColor=#E4FDE1;fillColor=#F45B69;" parent="WIyWlLk6GJQsqaUBKTNV-1" source="yDMauh3KUWVeg09iyaUy-95" target="yDMauh3KUWVeg09iyaUy-110" edge="1">
          <mxGeometry relative="1" as="geometry" />
        </mxCell>
        <mxCell id="yDMauh3KUWVeg09iyaUy-95" value="t==night" style="rounded=0;whiteSpace=wrap;html=1;strokeColor=#028090;fontColor=#E4FDE1;fillColor=#994C00;" parent="WIyWlLk6GJQsqaUBKTNV-1" vertex="1">
          <mxGeometry x="620" y="580" width="120" height="40" as="geometry" />
        </mxCell>
        <mxCell id="yDMauh3KUWVeg09iyaUy-102" value="START" style="ellipse;whiteSpace=wrap;html=1;strokeColor=#028090;fontColor=#E4FDE1;fillColor=#330033;" parent="WIyWlLk6GJQsqaUBKTNV-1" vertex="1">
          <mxGeometry x="18.75" width="90" height="40" as="geometry" />
        </mxCell>
        <mxCell id="yDMauh3KUWVeg09iyaUy-103" style="edgeStyle=orthogonalEdgeStyle;rounded=0;orthogonalLoop=1;jettySize=auto;html=1;exitX=0.5;exitY=1;exitDx=0;exitDy=0;entryX=0;entryY=0;entryDx=43.75;entryDy=0;entryPerimeter=0;strokeColor=#028090;fontColor=#E4FDE1;fillColor=#F45B69;" parent="WIyWlLk6GJQsqaUBKTNV-1" source="yDMauh3KUWVeg09iyaUy-102" target="yDMauh3KUWVeg09iyaUy-0" edge="1">
          <mxGeometry relative="1" as="geometry" />
        </mxCell>
        <mxCell id="yDMauh3KUWVeg09iyaUy-135" style="edgeStyle=orthogonalEdgeStyle;rounded=0;orthogonalLoop=1;jettySize=auto;html=1;exitX=0.5;exitY=1;exitDx=0;exitDy=0;entryX=1;entryY=0.5;entryDx=0;entryDy=0;strokeColor=#028090;fontColor=#E4FDE1;fillColor=#F45B69;" parent="WIyWlLk6GJQsqaUBKTNV-1" source="yDMauh3KUWVeg09iyaUy-104" target="yDMauh3KUWVeg09iyaUy-134" edge="1">
          <mxGeometry relative="1" as="geometry" />
        </mxCell>
        <mxCell id="yDMauh3KUWVeg09iyaUy-104" value="" style="ellipse;whiteSpace=wrap;html=1;aspect=fixed;strokeColor=#028090;fontColor=#E4FDE1;fillColor=#006633;" parent="WIyWlLk6GJQsqaUBKTNV-1" vertex="1">
          <mxGeometry x="790" y="890" width="20" height="20" as="geometry" />
        </mxCell>
        <mxCell id="yDMauh3KUWVeg09iyaUy-109" style="edgeStyle=orthogonalEdgeStyle;rounded=0;orthogonalLoop=1;jettySize=auto;html=1;exitX=0.5;exitY=1;exitDx=0;exitDy=0;entryX=0.5;entryY=0;entryDx=0;entryDy=0;strokeColor=#028090;fontColor=#E4FDE1;fillColor=#F45B69;" parent="WIyWlLk6GJQsqaUBKTNV-1" source="yDMauh3KUWVeg09iyaUy-107" target="yDMauh3KUWVeg09iyaUy-104" edge="1">
          <mxGeometry relative="1" as="geometry" />
        </mxCell>
        <mxCell id="yDMauh3KUWVeg09iyaUy-107" value="" style="ellipse;whiteSpace=wrap;html=1;aspect=fixed;strokeColor=#028090;fontColor=#E4FDE1;fillColor=#006633;" parent="WIyWlLk6GJQsqaUBKTNV-1" vertex="1">
          <mxGeometry x="790" y="790" width="20" height="20" as="geometry" />
        </mxCell>
        <mxCell id="yDMauh3KUWVeg09iyaUy-112" style="edgeStyle=orthogonalEdgeStyle;rounded=0;orthogonalLoop=1;jettySize=auto;html=1;exitX=0.5;exitY=1;exitDx=0;exitDy=0;entryX=0.5;entryY=0;entryDx=0;entryDy=0;strokeColor=#028090;fontColor=#E4FDE1;fillColor=#F45B69;" parent="WIyWlLk6GJQsqaUBKTNV-1" source="yDMauh3KUWVeg09iyaUy-110" target="yDMauh3KUWVeg09iyaUy-107" edge="1">
          <mxGeometry relative="1" as="geometry" />
        </mxCell>
        <mxCell id="yDMauh3KUWVeg09iyaUy-110" value="" style="ellipse;whiteSpace=wrap;html=1;aspect=fixed;strokeColor=#028090;fontColor=#E4FDE1;fillColor=#006633;" parent="WIyWlLk6GJQsqaUBKTNV-1" vertex="1">
          <mxGeometry x="790" y="590" width="20" height="20" as="geometry" />
        </mxCell>
        <mxCell id="yDMauh3KUWVeg09iyaUy-115" style="edgeStyle=orthogonalEdgeStyle;rounded=0;orthogonalLoop=1;jettySize=auto;html=1;exitX=0.5;exitY=1;exitDx=0;exitDy=0;entryX=0.5;entryY=0;entryDx=0;entryDy=0;strokeColor=#028090;fontColor=#E4FDE1;fillColor=#F45B69;" parent="WIyWlLk6GJQsqaUBKTNV-1" source="yDMauh3KUWVeg09iyaUy-113" target="yDMauh3KUWVeg09iyaUy-110" edge="1">
          <mxGeometry relative="1" as="geometry" />
        </mxCell>
        <mxCell id="yDMauh3KUWVeg09iyaUy-113" value="" style="ellipse;whiteSpace=wrap;html=1;aspect=fixed;strokeColor=#028090;fontColor=#E4FDE1;fillColor=#006633;" parent="WIyWlLk6GJQsqaUBKTNV-1" vertex="1">
          <mxGeometry x="790" y="515" width="20" height="20" as="geometry" />
        </mxCell>
        <mxCell id="yDMauh3KUWVeg09iyaUy-117" value="" style="edgeStyle=orthogonalEdgeStyle;rounded=0;orthogonalLoop=1;jettySize=auto;html=1;exitX=1;exitY=0.5;exitDx=0;exitDy=0;strokeColor=#028090;fontColor=#E4FDE1;fillColor=#F45B69;" parent="WIyWlLk6GJQsqaUBKTNV-1" source="yDMauh3KUWVeg09iyaUy-23" target="yDMauh3KUWVeg09iyaUy-116" edge="1">
          <mxGeometry relative="1" as="geometry">
            <mxPoint x="800" y="535" as="targetPoint" />
            <mxPoint x="740" y="280" as="sourcePoint" />
          </mxGeometry>
        </mxCell>
        <mxCell id="yDMauh3KUWVeg09iyaUy-118" style="edgeStyle=orthogonalEdgeStyle;rounded=0;orthogonalLoop=1;jettySize=auto;html=1;exitX=0.5;exitY=1;exitDx=0;exitDy=0;entryX=0.5;entryY=0;entryDx=0;entryDy=0;strokeColor=#028090;fontColor=#E4FDE1;fillColor=#F45B69;" parent="WIyWlLk6GJQsqaUBKTNV-1" source="yDMauh3KUWVeg09iyaUy-116" target="yDMauh3KUWVeg09iyaUy-113" edge="1">
          <mxGeometry relative="1" as="geometry" />
        </mxCell>
        <mxCell id="yDMauh3KUWVeg09iyaUy-116" value="" style="ellipse;whiteSpace=wrap;html=1;aspect=fixed;strokeColor=#028090;fontColor=#E4FDE1;fillColor=#006633;" parent="WIyWlLk6GJQsqaUBKTNV-1" vertex="1">
          <mxGeometry x="790" y="430" width="20" height="20" as="geometry" />
        </mxCell>
        <UserObject label="&lt;font size=&quot;1&quot; face=&quot;Tahoma&quot; style=&quot;&quot; color=&quot;#000066&quot;&gt;&lt;b style=&quot;font-size: 12px;&quot;&gt;False&lt;/b&gt;&lt;/font&gt;" placeholders="1" name="Variable" id="yDMauh3KUWVeg09iyaUy-120">
          <mxCell style="text;html=1;strokeColor=none;fillColor=none;align=center;verticalAlign=middle;whiteSpace=wrap;overflow=hidden;fontColor=#E4FDE1;" parent="WIyWlLk6GJQsqaUBKTNV-1" vertex="1">
            <mxGeometry x="340" y="250" width="60" height="30" as="geometry" />
          </mxCell>
        </UserObject>
        <UserObject label="&lt;font size=&quot;1&quot; face=&quot;Tahoma&quot; style=&quot;&quot; color=&quot;#000066&quot;&gt;&lt;b style=&quot;font-size: 12px;&quot;&gt;False&lt;/b&gt;&lt;/font&gt;" placeholders="1" name="Variable" id="yDMauh3KUWVeg09iyaUy-122">
          <mxCell style="text;html=1;strokeColor=none;fillColor=none;align=center;verticalAlign=middle;whiteSpace=wrap;overflow=hidden;fontColor=#E4FDE1;" parent="WIyWlLk6GJQsqaUBKTNV-1" vertex="1">
            <mxGeometry x="210" y="350" width="60" height="30" as="geometry" />
          </mxCell>
        </UserObject>
        <UserObject label="&lt;font size=&quot;1&quot; face=&quot;Tahoma&quot; style=&quot;&quot; color=&quot;#000066&quot;&gt;&lt;b style=&quot;font-size: 12px;&quot;&gt;False&lt;/b&gt;&lt;/font&gt;" placeholders="1" name="Variable" id="yDMauh3KUWVeg09iyaUy-123">
          <mxCell style="text;html=1;strokeColor=none;fillColor=none;align=center;verticalAlign=middle;whiteSpace=wrap;overflow=hidden;fontColor=#E4FDE1;" parent="WIyWlLk6GJQsqaUBKTNV-1" vertex="1">
            <mxGeometry x="210" y="690" width="60" height="30" as="geometry" />
          </mxCell>
        </UserObject>
        <UserObject label="&lt;font size=&quot;1&quot; face=&quot;Tahoma&quot; style=&quot;&quot; color=&quot;#000066&quot;&gt;&lt;b style=&quot;font-size: 12px;&quot;&gt;False&lt;/b&gt;&lt;/font&gt;" placeholders="1" name="Variable" id="yDMauh3KUWVeg09iyaUy-124">
          <mxCell style="text;html=1;strokeColor=none;fillColor=none;align=center;verticalAlign=middle;whiteSpace=wrap;overflow=hidden;fontColor=#E4FDE1;" parent="WIyWlLk6GJQsqaUBKTNV-1" vertex="1">
            <mxGeometry x="352.5" y="575" width="35" height="25" as="geometry" />
          </mxCell>
        </UserObject>
        <UserObject label="&lt;font size=&quot;1&quot; face=&quot;Tahoma&quot; style=&quot;&quot; color=&quot;#000066&quot;&gt;&lt;b style=&quot;font-size: 13px;&quot;&gt;False&lt;/b&gt;&lt;/font&gt;" placeholders="1" name="Variable" id="yDMauh3KUWVeg09iyaUy-127">
          <mxCell style="text;html=1;strokeColor=none;fillColor=none;align=center;verticalAlign=middle;whiteSpace=wrap;overflow=hidden;fontColor=#E4FDE1;" parent="WIyWlLk6GJQsqaUBKTNV-1" vertex="1">
            <mxGeometry x="77.5" y="435" width="60" height="30" as="geometry" />
          </mxCell>
        </UserObject>
        <UserObject label="&lt;font style=&quot;font-size: 13px;&quot; face=&quot;Tahoma&quot; color=&quot;#000066&quot;&gt;&lt;b&gt;True&lt;/b&gt;&lt;/font&gt;" placeholders="1" name="Variable" id="yDMauh3KUWVeg09iyaUy-128">
          <mxCell style="text;html=1;strokeColor=none;fillColor=none;align=center;verticalAlign=middle;whiteSpace=wrap;overflow=hidden;fontColor=#E4FDE1;" parent="WIyWlLk6GJQsqaUBKTNV-1" vertex="1">
            <mxGeometry x="67.5" y="810" width="80" height="20" as="geometry" />
          </mxCell>
        </UserObject>
        <UserObject label="&lt;font size=&quot;1&quot; style=&quot;&quot; face=&quot;Tahoma&quot; color=&quot;#000066&quot;&gt;&lt;b style=&quot;font-size: 12px;&quot;&gt;True&lt;/b&gt;&lt;/font&gt;" placeholders="1" name="Variable" id="yDMauh3KUWVeg09iyaUy-129">
          <mxCell style="text;html=1;strokeColor=none;fillColor=none;align=center;verticalAlign=middle;whiteSpace=wrap;overflow=hidden;fontColor=#E4FDE1;" parent="WIyWlLk6GJQsqaUBKTNV-1" vertex="1">
            <mxGeometry x="200" y="910" width="80" height="20" as="geometry" />
          </mxCell>
        </UserObject>
        <UserObject label="&lt;font size=&quot;1&quot; style=&quot;&quot; face=&quot;Tahoma&quot; color=&quot;#000066&quot;&gt;&lt;b style=&quot;font-size: 12px;&quot;&gt;True&lt;/b&gt;&lt;/font&gt;" placeholders="1" name="Variable" id="yDMauh3KUWVeg09iyaUy-130">
          <mxCell style="text;html=1;strokeColor=none;fillColor=none;align=center;verticalAlign=middle;whiteSpace=wrap;overflow=hidden;fontColor=#E4FDE1;" parent="WIyWlLk6GJQsqaUBKTNV-1" vertex="1">
            <mxGeometry x="330" y="800" width="80" height="20" as="geometry" />
          </mxCell>
        </UserObject>
        <UserObject label="&lt;font size=&quot;1&quot; style=&quot;&quot; face=&quot;Tahoma&quot; color=&quot;#000066&quot;&gt;&lt;b style=&quot;font-size: 12px;&quot;&gt;True&lt;/b&gt;&lt;/font&gt;" placeholders="1" name="Variable" id="yDMauh3KUWVeg09iyaUy-131">
          <mxCell style="text;html=1;strokeColor=none;fillColor=none;align=center;verticalAlign=middle;whiteSpace=wrap;overflow=hidden;fontColor=#E4FDE1;" parent="WIyWlLk6GJQsqaUBKTNV-1" vertex="1">
            <mxGeometry x="200" y="535" width="80" height="20" as="geometry" />
          </mxCell>
        </UserObject>
        <UserObject label="&lt;font size=&quot;1&quot; style=&quot;&quot; face=&quot;Tahoma&quot; color=&quot;#000066&quot;&gt;&lt;b style=&quot;font-size: 12px;&quot;&gt;True&lt;/b&gt;&lt;/font&gt;" placeholders="1" name="Variable" id="yDMauh3KUWVeg09iyaUy-132">
          <mxCell style="text;html=1;strokeColor=none;fillColor=none;align=center;verticalAlign=middle;whiteSpace=wrap;overflow=hidden;fontColor=#E4FDE1;" parent="WIyWlLk6GJQsqaUBKTNV-1" vertex="1">
            <mxGeometry x="330" y="445" width="80" height="20" as="geometry" />
          </mxCell>
        </UserObject>
        <mxCell id="yDMauh3KUWVeg09iyaUy-138" style="edgeStyle=orthogonalEdgeStyle;rounded=0;orthogonalLoop=1;jettySize=auto;html=1;exitX=0.5;exitY=0;exitDx=0;exitDy=0;strokeColor=#028090;fontColor=#E4FDE1;fillColor=#F45B69;entryX=0.5;entryY=0;entryDx=0;entryDy=0;" parent="WIyWlLk6GJQsqaUBKTNV-1" source="yDMauh3KUWVeg09iyaUy-134" target="yDMauh3KUWVeg09iyaUy-134" edge="1">
          <mxGeometry relative="1" as="geometry">
            <mxPoint x="510" y="990" as="targetPoint" />
          </mxGeometry>
        </mxCell>
        <mxCell id="yDMauh3KUWVeg09iyaUy-140" style="edgeStyle=orthogonalEdgeStyle;rounded=0;orthogonalLoop=1;jettySize=auto;html=1;exitX=0.5;exitY=1;exitDx=0;exitDy=0;entryX=1;entryY=0.5;entryDx=0;entryDy=0;strokeColor=#028090;fontColor=#E4FDE1;fillColor=#F45B69;" parent="WIyWlLk6GJQsqaUBKTNV-1" source="yDMauh3KUWVeg09iyaUy-134" target="yDMauh3KUWVeg09iyaUy-137" edge="1">
          <mxGeometry relative="1" as="geometry" />
        </mxCell>
        <mxCell id="yDMauh3KUWVeg09iyaUy-143" style="edgeStyle=orthogonalEdgeStyle;rounded=0;orthogonalLoop=1;jettySize=auto;html=1;exitX=0.5;exitY=0;exitDx=0;exitDy=0;entryX=0.5;entryY=0;entryDx=0;entryDy=0;strokeColor=#028090;fontColor=#E4FDE1;fillColor=#F45B69;" parent="WIyWlLk6GJQsqaUBKTNV-1" source="yDMauh3KUWVeg09iyaUy-134" target="yDMauh3KUWVeg09iyaUy-141" edge="1">
          <mxGeometry relative="1" as="geometry" />
        </mxCell>
        <mxCell id="yDMauh3KUWVeg09iyaUy-134" value="p&amp;gt;2" style="rhombus;whiteSpace=wrap;html=1;strokeColor=#028090;fontColor=#E4FDE1;fillColor=#F45B69;" parent="WIyWlLk6GJQsqaUBKTNV-1" vertex="1">
          <mxGeometry x="620" y="1020" width="80" height="80" as="geometry" />
        </mxCell>
        <mxCell id="yDMauh3KUWVeg09iyaUy-142" style="edgeStyle=orthogonalEdgeStyle;rounded=0;orthogonalLoop=1;jettySize=auto;html=1;exitX=0;exitY=0.5;exitDx=0;exitDy=0;entryX=0.5;entryY=1;entryDx=0;entryDy=0;strokeColor=#028090;fontColor=#E4FDE1;fillColor=#F45B69;" parent="WIyWlLk6GJQsqaUBKTNV-1" source="yDMauh3KUWVeg09iyaUy-137" target="yDMauh3KUWVeg09iyaUy-141" edge="1">
          <mxGeometry relative="1" as="geometry" />
        </mxCell>
        <mxCell id="yDMauh3KUWVeg09iyaUy-137" value="pr == pr * 0.85" style="rounded=0;whiteSpace=wrap;html=1;strokeColor=#028090;fontColor=#E4FDE1;fillColor=#994C00;" parent="WIyWlLk6GJQsqaUBKTNV-1" vertex="1">
          <mxGeometry x="430" y="1100" width="120" height="40" as="geometry" />
        </mxCell>
        <UserObject label="&lt;font size=&quot;1&quot; face=&quot;Tahoma&quot; style=&quot;&quot; color=&quot;#000066&quot;&gt;&lt;b style=&quot;font-size: 13px;&quot;&gt;False&lt;/b&gt;&lt;/font&gt;" placeholders="1" name="Variable" id="yDMauh3KUWVeg09iyaUy-139">
          <mxCell style="text;html=1;strokeColor=none;fillColor=none;align=center;verticalAlign=middle;whiteSpace=wrap;overflow=hidden;fontColor=#E4FDE1;" parent="WIyWlLk6GJQsqaUBKTNV-1" vertex="1">
            <mxGeometry x="600" y="970" width="60" height="30" as="geometry" />
          </mxCell>
        </UserObject>
        <mxCell id="yDMauh3KUWVeg09iyaUy-147" style="edgeStyle=orthogonalEdgeStyle;rounded=0;orthogonalLoop=1;jettySize=auto;html=1;exitX=0;exitY=0.5;exitDx=0;exitDy=0;entryX=1;entryY=0.5;entryDx=0;entryDy=0;strokeColor=#028090;fontColor=#E4FDE1;fillColor=#F45B69;" parent="WIyWlLk6GJQsqaUBKTNV-1" source="yDMauh3KUWVeg09iyaUy-141" target="yDMauh3KUWVeg09iyaUy-146" edge="1">
          <mxGeometry relative="1" as="geometry" />
        </mxCell>
        <mxCell id="yDMauh3KUWVeg09iyaUy-141" value="" style="ellipse;whiteSpace=wrap;html=1;aspect=fixed;strokeColor=#028090;fontColor=#E4FDE1;fillColor=#006633;" parent="WIyWlLk6GJQsqaUBKTNV-1" vertex="1">
          <mxGeometry x="330" y="1050" width="20" height="20" as="geometry" />
        </mxCell>
        <UserObject label="&lt;font style=&quot;font-size: 13px;&quot; face=&quot;Tahoma&quot; color=&quot;#000066&quot;&gt;&lt;b&gt;True&lt;/b&gt;&lt;/font&gt;" placeholders="1" name="Variable" id="yDMauh3KUWVeg09iyaUy-145">
          <mxCell style="text;html=1;strokeColor=none;fillColor=none;align=center;verticalAlign=middle;whiteSpace=wrap;overflow=hidden;fontColor=#E4FDE1;" parent="WIyWlLk6GJQsqaUBKTNV-1" vertex="1">
            <mxGeometry x="590" y="1130" width="80" height="20" as="geometry" />
          </mxCell>
        </UserObject>
        <mxCell id="yDMauh3KUWVeg09iyaUy-150" style="edgeStyle=orthogonalEdgeStyle;rounded=0;orthogonalLoop=1;jettySize=auto;html=1;exitX=0;exitY=0.5;exitDx=0;exitDy=0;entryX=1;entryY=0.5;entryDx=0;entryDy=0;strokeColor=#028090;fontColor=#E4FDE1;fillColor=#F45B69;" parent="WIyWlLk6GJQsqaUBKTNV-1" source="yDMauh3KUWVeg09iyaUy-146" target="yDMauh3KUWVeg09iyaUy-149" edge="1">
          <mxGeometry relative="1" as="geometry" />
        </mxCell>
        <mxCell id="yDMauh3KUWVeg09iyaUy-146" value="price" style="shape=document;whiteSpace=wrap;html=1;boundedLbl=1;strokeColor=#028090;fontColor=#E4FDE1;fillColor=#9999FF;" parent="WIyWlLk6GJQsqaUBKTNV-1" vertex="1">
          <mxGeometry x="200" y="1040" width="60" height="40" as="geometry" />
        </mxCell>
        <mxCell id="yDMauh3KUWVeg09iyaUy-149" value="END" style="ellipse;whiteSpace=wrap;html=1;strokeColor=#028090;fontColor=#E4FDE1;fillColor=#330033;" parent="WIyWlLk6GJQsqaUBKTNV-1" vertex="1">
          <mxGeometry x="3.75" y="1040" width="90" height="40" as="geometry" />
        </mxCell>
      </root>
    </mxGraphModel>
  </diagram>
</mxfile>
